<?xml version="1.0" encoding="UTF-8"?>
<svg version="1.1" viewBox="0 0 2000 2000" width="1280" height="1280" xmlns="http://www.w3.org/2000/svg">
<path transform="translate(1e3 881)" d="m0 0h22l16 2 18 5 16 7 15 10 15 13 11 13 9 14 8 17 5 17 3 22v15l-1 14-2 2h-216l5 18 5 14 7 13 9 11 7 7 10 7 15 8 14 4 17 2h11l18-2 17-5 15-8 11-9 9-10 5 2 22 15 1 4-20 20-17 12-16 8-15 5-14 3-9 1h-30l-18-3-16-5-19-9-12-9-16-15-10-12-9-15-8-19-6-23-2-17v-19l3-21 4-15 5-13 7-14 12-17 8-9 8-7 13-10 17-9 18-6 15-3zm1 35-17 3-17 6-13 8-10 9-8 9-7 12-6 17-3 20 1 1h178l1-3-3-19-5-15-8-14-10-11-14-10-14-7-19-5-9-1z" fill="#3E393F"/>
<path transform="translate(150,882)" d="m0 0h31l17 3 14 4 16 8 11 7 14 14 9 14 6 14 3 13 1 8 1 180-14 1h-16l-2-2-5-23v-7h-3l-2 4-9 10-14 10-14 6-16 4-8 1h-27l-15-2-18-5-16-8-11-8-9-8-10-14-7-15-4-17v-19l2-11 4-12 9-16 12-13 14-10 19-9 19-5 13-2 26-1 20 2 21 5 15 6 8 5-2-27-4-15-6-11-7-8-13-8-13-5-17-3h-21l-20 3-21 7-16 8-4 3-4-2-13-20-1-4 13-9 15-8 18-7 22-5zm3 126-19 4-16 7-11 8-8 9-5 10-3 12v12l3 13 6 11 9 9 12 7 11 4 17 3h27l19-5 12-5 14-8 10-8 4-4v-59l-9-6-12-6-15-5-16-3z" fill="#3E393F"/>
<path transform="translate(1779,912)" d="m0 0h10l4 4 3 11 8 40 5 14 8 13 11 12 11 8 14 7 13 4 41 8 8 4 1 2v9l-3 3-8 3-39 8-16 5-10 5-11 8-9 9-7 10-7 15-5 19-6 32-5 10-6 1-7-3-4-10-8-40-5-15-7-13-8-10-9-8-13-8-12-5-23-5-27-5-6-3-3-4v-7l4-5 5-2 45-9 14-5 14-8 11-9 8-10 8-16 4-13 6-28 3-15 3-6z" fill="#3E393F"/>
<path transform="translate(459,881)" d="m0 0h23l16 2 18 5 16 7 17 11 10 8 4 4-1 4-10 11-9 11-4-2-12-9-16-8-13-4-9-2-9-1h-19l-14 2-17 6-11 6-13 10-9 10-5 7-8 17-5 17-2 12v24l3 17 5 16 7 13 10 13 7 7 10 7 16 8 19 5 9 1h15l15-2 18-5 17-9 12-9 4-2 12 12 7 8 3 5-12 10-10 7-14 8-14 6-21 6-17 2h-17l-23-3-18-5-21-10-10-7-14-12-7-7-9-12-8-14-5-11-6-18-3-16-1-9v-23l3-20 4-15 7-17 8-15 9-12 7-8 8-7 11-9 15-9 21-8 20-4z" fill="#3E3A3F"/>
<path transform="translate(731,881)" d="m0 0h23l16 2 18 5 16 7 17 11 10 8 4 4-1 4-10 11-9 11-4-2-12-9-16-8-13-4-9-2-9-1h-19l-14 2-17 6-11 6-13 10-9 10-5 7-8 17-5 17-2 12v24l3 17 5 16 7 13 10 13 7 7 10 7 16 8 19 5 9 1h15l15-2 18-5 17-9 12-9 4-2 12 12 7 8 3 5-12 10-10 7-14 8-14 6-21 6-17 2h-17l-23-3-15-4-16-7-16-9-10-9-8-7-10-11-10-16-7-15-6-18-3-16-1-9v-22l3-21 6-21 10-21 8-12 7-9h2l2-4 8-7 11-9 15-9 21-8 20-4z" fill="#3F3A40"/>
<path transform="translate(1510,881)" d="m0 0h16l15 2 15 4 16 8 12 9 6 5-2 5-10 11-8 10-9-5-17-9-11-3-6-1h-17l-16 4-12 7-8 9-4 11-1 5v8l4 13 9 10 14 7 13 4 27 7 16 6 16 9 11 9 7 8 8 14 4 13 1 8v17l-4 16-7 14-7 9-7 7-14 9-17 7-12 3-17 2h-15l-19-3-15-5-17-9-11-9-12-12-3-4 2-4 6-6h2v-2l8-7 5-6 5 3 4 5 10 8 12 7 18 6 7 1h20l16-5 10-6 8-9 4-12v-14l-3-10-6-9-8-7-12-6-21-6-20-5-16-6-12-7-9-7-8-8-8-13-5-14-1-6v-16l3-15 5-12 7-11 12-12 14-9 19-7 10-2z" fill="#3F3A40"/>
<path transform="translate(1283,881)" d="m0 0h16l15 2 17 5 14 7 12 9 6 5-2 5-9 10-9 11-4-2-13-8-15-6-11-2h-17l-16 4-9 5-9 8-5 10-2 10v7l3 11 6 8 7 6 16 7 35 9 18 7 11 6 13 10 8 9 8 14 4 14 1 8v14l-3 15-6 14-9 12-7 7-14 9-14 6-15 4-17 2h-15l-19-3-15-5-17-9-11-9-8-7-6-8 1-5 13-12 7-8 5 1 6 7 12 9 14 7 13 4 7 1h20l17-5 10-7 6-7 4-9 1-5v-13l-3-10-6-9-8-7-17-8-36-9-16-6-14-8-12-11-8-10-5-11-3-10-1-7v-13l3-16 5-12 7-11 12-12 13-8 11-5 14-4z" fill="#3E393F"/>
<path transform="translate(1917,933)" d="m0 0 3 1 5 11 7 12 10 8 15 7 3 1v2l-16 7-9 7-7 9-9 18-2-1-5-13-7-11-8-7-15-7-5-2v-2l13-5 10-6 8-8 7-14z" fill="#413C42"/>
</svg>
